<svg width="53" height="53" viewBox="0 0 53 53" fill="none" xmlns="http://www.w3.org/2000/svg">
<g clip-path="url(#clip0_13_123)">
<path fill-rule="evenodd" clip-rule="evenodd" d="M20.3321 52.3325C20.3321 52.7019 20.6302 53 20.9996 53H30.5147C30.8841 53 31.1822 52.7019 31.1822 52.3325V26.2913H38.0805C38.4283 26.2913 38.7165 26.0263 38.7463 25.6785L39.4088 17.8345C39.4166 17.7425 39.4052 17.6499 39.3754 17.5625C39.3456 17.4752 39.2979 17.3949 39.2355 17.3269C39.1731 17.2589 39.0972 17.2046 39.0128 17.1673C38.9283 17.1301 38.837 17.1108 38.7447 17.1107H31.1822V11.5441C31.1822 10.2389 32.2389 9.18059 33.544 9.18059H38.8606C39.2299 9.18059 39.5281 8.88247 39.5281 8.51312V0.667469C39.5281 0.490445 39.4577 0.320672 39.3326 0.195497C39.2074 0.0703224 39.0376 0 38.8606 0L29.8787 0C27.3473 0 24.9195 1.00563 23.1294 2.79566C21.3394 4.58569 20.3338 7.01349 20.3338 9.54497V17.1107H15.5737C15.397 17.1107 15.2275 17.1808 15.1023 17.3056C14.9772 17.4304 14.9067 17.5998 14.9062 17.7765V25.6238C14.9062 25.9932 15.2044 26.2913 15.5737 26.2913H20.3321V52.3325Z" fill="#7A7A7A"/>
</g>
<defs>
<clipPath id="clip0_13_123">
<rect width="53" height="53" fill="white"/>
</clipPath>
</defs>
</svg>
