<svg width="53" height="53" viewBox="0 0 53 53" fill="none" xmlns="http://www.w3.org/2000/svg">
<path d="M47.9998 37.0354C47.9998 38.4753 47.7162 39.901 47.1652 41.2313C46.6142 42.5615 45.8065 43.7703 44.7884 44.7884C43.7703 45.8065 42.5615 46.6142 41.2313 47.1652C39.901 47.7162 38.4753 47.9998 37.0354 47.9998H15.9646C13.0567 47.9998 10.2678 46.8446 8.21161 44.7884C6.15539 42.7322 5.00022 39.9433 5.00022 37.0354V15.9629C5.00022 13.055 6.15539 10.2662 8.21161 8.20995C10.2678 6.15373 13.0567 4.99856 15.9646 4.99856H37.0354C39.9433 4.99856 42.7322 6.15373 44.7884 8.20995C46.8446 10.2662 47.9998 13.055 47.9998 15.9629V37.0354ZM53 15.9629C53 7.14672 45.8516 0 37.0338 0H15.9663C7.14672 0 0 7.14672 0 15.9629V37.0354C0 45.8516 7.14838 53 15.9663 53H37.0338C41.2683 53 45.3293 51.3178 48.3236 48.3236C51.3178 45.3293 53 41.2683 53 37.0338V15.9629ZM26.5894 35.2251C24.3667 35.2225 22.2357 34.3383 20.664 32.7666C19.0923 31.1949 18.2081 29.0639 18.2055 26.8412C18.2081 24.6184 19.0923 22.4875 20.664 20.9158C22.2357 19.344 24.3667 18.4599 26.5894 18.4573C28.8123 18.4594 30.9435 19.3435 32.5154 20.9153C34.0872 22.4871 34.9712 24.6183 34.9734 26.8412C34.9712 29.0641 34.0872 31.1953 32.5154 32.7671C30.9435 34.3389 28.8123 35.2229 26.5894 35.2251ZM26.5894 13.7535C19.3732 13.7535 13.5018 19.6249 13.5018 26.8412C13.5018 34.0591 19.3732 39.9289 26.5894 39.9289C33.8074 39.9289 39.6788 34.0591 39.6788 26.8412C39.6788 19.6249 33.8074 13.7535 26.5894 13.7535ZM40.4423 9.75697C40.0331 9.75697 39.6279 9.83757 39.2498 9.99418C38.8717 10.1508 38.5282 10.3803 38.2388 10.6697C37.9494 10.9591 37.7199 11.3026 37.5633 11.6807C37.4067 12.0588 37.3261 12.464 37.3261 12.8732C37.3261 13.2824 37.4067 13.6877 37.5633 14.0657C37.7199 14.4438 37.9494 14.7873 38.2388 15.0767C38.5282 15.3661 38.8717 15.5956 39.2498 15.7522C39.6279 15.9088 40.0331 15.9894 40.4423 15.9894C41.2688 15.9894 42.0614 15.6611 42.6458 15.0767C43.2302 14.4923 43.5585 13.6997 43.5585 12.8732C43.5585 12.0467 43.2302 11.2541 42.6458 10.6697C42.0614 10.0853 41.2688 9.75697 40.4423 9.75697Z" fill="#7A7A7A"/>
</svg>
