<svg width="200" height="112" viewBox="0 0 200 112" fill="none" xmlns="http://www.w3.org/2000/svg">
<path d="M130.822 21.8293L101.535 0.483978V0.475971H69.8474V30.9453H39.3778V32.164H69.8474V62.6333H71.0661V32.164H101.535V30.9453H71.0661V1.69466H101.127L130.822 23.3373L159.371 2.52929V62.88H160.589V0.133327L130.822 21.8293Z" fill="#050606"/>
<path d="M5.77867 92.748H6.06574V87.304H11.5084V87.016L6.06574 87.0187V81.8626H11.5084V81.5733L5.7772 81.576L5.77867 87.0187H0.334936V87.304H5.77867V92.748ZM6.39907 93.0813H5.44534V87.6373H0.00320638L0 86.6853H5.44534L5.44387 81.2426L11.8417 81.24V82.1959H6.39907V86.6853L11.8417 86.6827V87.6373H6.39907V93.0813Z" fill="#231F20"/>
<path d="M16.3459 81.9653C16.3273 81.9653 16.3199 81.968 16.3199 81.968L16.3454 92.7213V87.2787H22.4949C22.5142 87.2787 22.5287 87.2774 22.5413 87.2747C22.5298 87.2734 22.5147 87.272 22.4949 87.272H16.3454V81.9813H23.8058C23.8397 81.9813 23.8563 81.9747 23.8601 81.972C23.8621 81.972 23.8475 81.9653 23.8058 81.9653H16.3459ZM16.3459 92.9867V92.9947L23.9663 93.0027C23.9981 93.0027 24.0131 92.9973 24.0167 92.9947C24.023 92.9933 24.0085 92.9867 23.9663 92.9867H16.3459ZM23.9663 93.4373H16.3459C16.0819 93.4373 15.9111 93.264 15.9111 92.9947V81.9653C15.9111 81.7013 16.0819 81.5307 16.3459 81.5307H23.8058C24.1558 81.5307 24.2803 81.7653 24.2803 81.9653C24.2803 82.1133 24.2314 82.228 24.1345 82.3093C24.0445 82.3813 23.935 82.416 23.8058 82.416H16.7803V86.8373H22.4949C22.6205 86.8373 22.7273 86.8667 22.8142 86.9253C22.9257 87.0027 22.9861 87.124 22.9861 87.2707C22.9861 87.4653 22.8929 87.5693 22.8147 87.6227C22.7273 87.6827 22.6194 87.7134 22.4949 87.7134H16.7803V92.552H23.9663C24.3167 92.552 24.4413 92.7867 24.4413 92.9867C24.4413 93.172 24.3601 93.276 24.2923 93.332C24.2106 93.4 24.0975 93.4373 23.9663 93.4373Z" fill="#231F20"/>
<path d="M27.2991 81.9733H31.6636C32.1183 81.9733 32.5485 82.0573 32.9485 82.2227C32.5453 82.052 32.1152 81.9653 31.6636 81.9653L27.2991 81.9733ZM27.7333 88.2107H31.6636C32.1953 88.2107 32.6891 88.0813 33.1308 87.8266C33.5715 87.5706 33.9235 87.2187 34.1761 86.7813C34.4287 86.3427 34.5568 85.852 34.5568 85.3253C34.5568 84.792 34.4287 84.2973 34.1761 83.8533C33.9235 83.4107 33.5715 83.0547 33.1297 82.7947C32.6887 82.5387 32.1948 82.408 31.6636 82.408H27.7333V88.2107ZM32.8095 88.468L34.6849 92.9747L34.7339 93.0027L34.724 92.9653L32.8537 88.456L33.0423 88.368C33.6297 88.0973 34.11 87.684 34.4693 87.1427C34.8267 86.6027 35.0073 85.9907 35.0073 85.3253C35.0073 84.7267 34.8563 84.1613 34.5584 83.6453C34.5423 83.6187 34.5256 83.5893 34.5089 83.5626C34.5235 83.588 34.5387 83.6134 34.5532 83.6387C34.8439 84.1494 34.9917 84.7173 34.9917 85.3253C34.9917 85.9293 34.8439 86.492 34.5532 86.9986C34.2605 87.5053 33.8553 87.9093 33.348 88.2027C32.8417 88.4973 32.2751 88.6453 31.6636 88.6453L27.2991 88.6613H31.6636C32.0011 88.6613 32.3229 88.616 32.6215 88.524L32.8095 88.468ZM34.7339 93.4373H34.7105C34.6344 93.4373 34.5573 93.4147 34.4824 93.372C34.3996 93.3254 34.3333 93.2493 34.2876 93.148L32.5568 88.9933C32.272 89.0613 31.9724 89.096 31.6636 89.096H27.7333V92.9947C27.7333 93.264 27.5663 93.4373 27.3068 93.4373C27.0339 93.4373 26.8641 93.268 26.8641 92.9947V81.9653C26.8641 81.7013 27.0349 81.5307 27.2991 81.5307H31.6636C32.3423 81.5307 32.9792 81.7027 33.5589 82.044C34.136 82.3827 34.598 82.848 34.9339 83.428C35.2715 84.0107 35.4423 84.648 35.4423 85.3253C35.4423 86.076 35.2365 86.7693 34.8319 87.384C34.4663 87.9333 33.9896 88.3653 33.4136 88.6707L35.1365 92.8307C35.1631 92.9293 35.1688 92.9613 35.1688 92.9947C35.1688 93.1107 35.1235 93.2173 35.0376 93.304C34.9491 93.392 34.8448 93.4373 34.7339 93.4373Z" fill="#231F20"/>
<path d="M38.8813 81.984L47.69 92.9387C47.726 92.98 47.7513 92.996 47.762 93.0027L38.9344 82.0373C38.9125 82.0107 38.8944 81.9947 38.8813 81.984ZM47.7927 81.968H47.762L47.786 93.004L47.7913 93.0027C47.7913 92.9947 47.7927 92.9773 47.7927 92.9546V81.968ZM47.8007 93.4373H47.7527C47.618 93.4373 47.4847 93.3627 47.3567 93.2187L39.2647 83.1533V92.9546C39.2647 93.3106 39.0444 93.4373 38.8387 93.4373C38.6469 93.4373 38.5428 93.348 38.4891 93.2747C38.4272 93.1867 38.3959 93.08 38.3959 92.9546V81.9653C38.3959 81.8626 38.4313 81.7654 38.4969 81.6827C38.572 81.5934 38.6781 81.5413 38.8057 81.5307H38.862C39.0063 81.5307 39.1396 81.6066 39.2699 81.76L47.35 91.7986V81.9653C47.35 81.7013 47.5247 81.5307 47.7927 81.5307C48.0607 81.5307 48.2274 81.7013 48.2274 81.9653V92.9546C48.2274 93.3106 48.0073 93.4373 47.8007 93.4373Z" fill="#231F20"/>
<path d="M53.4141 89.296H58.6447L56.0367 83.0507L53.4141 89.296ZM52.7714 89.7373H59.2741L59.2714 89.732L52.7714 89.7373ZM60.6594 93.4373H60.6354C60.5407 93.4373 60.3634 93.4 60.2581 93.1507L59.0114 90.1733H53.0461L51.8007 93.1427C51.6994 93.3987 51.5247 93.4373 51.4314 93.4373C51.2941 93.4373 51.1914 93.4013 51.1101 93.336C51.0141 93.2573 50.9647 93.148 50.9647 93.0173C50.9647 92.9467 50.9794 92.8773 51.0074 92.812L55.6207 81.8414C55.7127 81.62 55.8714 81.556 55.9861 81.5414L56.0487 81.5387C56.1287 81.5387 56.2034 81.5627 56.2754 81.6107C56.3527 81.6614 56.4101 81.736 56.4554 81.8414L61.0607 92.8134C61.0874 92.8747 61.1021 92.94 61.1021 93.0027C61.1021 93.124 61.0514 93.2334 60.9554 93.3187C60.8714 93.396 60.7674 93.4373 60.6594 93.4373Z" fill="#231F20"/>
<path d="M64.4221 81.9854L73.2301 92.9387C73.2621 92.9747 73.2848 92.992 73.2968 93L72.9381 92.552L64.4741 82.0373C64.4528 82.012 64.4354 81.996 64.4221 81.9854ZM73.3328 81.968H73.3008L73.3248 93.004L73.3301 93.0027C73.3301 92.9947 73.3328 92.9773 73.3328 92.9546V81.968ZM73.3408 93.4373H73.2914C73.1568 93.4373 73.0234 93.3627 72.8968 93.2187L64.8048 83.1533V92.9546C64.8048 93.3106 64.5741 93.4373 64.3781 93.4373C64.1874 93.4373 64.0834 93.348 64.0288 93.2747C63.9661 93.1867 63.9354 93.08 63.9354 92.9546V81.9653C63.9354 81.8626 63.9701 81.7654 64.0368 81.6827C64.1114 81.5934 64.2181 81.5413 64.3461 81.5307H64.4021C64.5448 81.5307 64.6794 81.6066 64.8088 81.76L72.8901 91.7986V81.9653C72.8901 81.7013 73.0648 81.5307 73.3328 81.5307C73.5994 81.5307 73.7674 81.7013 73.7674 81.9653V92.9546C73.7674 93.3106 73.5381 93.4373 73.3408 93.4373Z" fill="#231F20"/>
<path d="M78.0646 92.552H81.062C82.0486 92.552 82.9593 92.324 83.77 91.876C84.578 91.428 85.2247 90.8107 85.6913 90.04L85.7313 89.9733C86.1686 89.2213 86.3913 88.3893 86.3913 87.496C86.3913 86.5746 86.1553 85.7174 85.6913 84.944C85.226 84.1694 84.5793 83.5466 83.7687 83.096C82.9593 82.6453 82.0486 82.416 81.062 82.416H78.0646V92.552ZM77.63 92.9867V92.9947L81.094 93.0027C82.1553 93.0027 83.1353 92.752 84.01 92.2587C84.8833 91.764 85.582 91.088 86.0847 90.2494C86.5873 89.412 86.842 88.4853 86.842 87.496C86.842 86.5013 86.5873 85.5693 86.0847 84.7307C85.5793 83.8867 84.8807 83.208 84.01 82.7134C83.1353 82.2174 82.154 81.9653 81.094 81.9653H77.63C77.6113 81.9653 77.6033 81.968 77.6033 81.968L77.6286 92.456V81.9813H81.062C82.1246 81.9813 83.106 82.2294 83.982 82.716C84.858 83.204 85.5593 83.8787 86.0633 84.72C86.5686 85.564 86.826 86.4973 86.826 87.496C86.826 88.496 86.5686 89.428 86.0633 90.2653C85.5566 91.1013 84.8566 91.7707 83.9806 92.256C83.1033 92.74 82.122 92.9867 81.062 92.9867H77.63ZM81.094 93.4373H77.606C77.3473 93.416 77.1953 93.2467 77.1953 92.9947V81.9653C77.1953 81.7013 77.366 81.5307 77.63 81.5307H81.094C82.2313 81.5307 83.2847 81.8013 84.2233 82.336C85.1633 82.868 85.914 83.5987 86.458 84.5067C87.0007 85.416 87.2767 86.4213 87.2767 87.496C87.2767 88.5653 87.0007 89.5667 86.458 90.4733C85.914 91.38 85.162 92.108 84.2233 92.636C83.2847 93.168 82.2313 93.4373 81.094 93.4373Z" fill="#231F20"/>
<path d="M90.8154 89.296H96.0447L93.4368 83.0507L90.8154 89.296ZM90.1714 89.7373H96.6754L96.6728 89.732L90.1714 89.7373ZM98.0594 93.4373H98.0368C97.9408 93.4373 97.7634 93.4 97.6581 93.1507L96.4114 90.1733H90.4474L89.2007 93.1427C89.0994 93.3987 88.9261 93.4373 88.8314 93.4373C88.6941 93.4373 88.5914 93.4013 88.5101 93.336C88.4154 93.2573 88.3647 93.148 88.3647 93.0173C88.3647 92.9467 88.3794 92.8773 88.4074 92.812L93.0208 81.8414C93.1141 81.62 93.2714 81.556 93.3861 81.5414L93.4501 81.5387C93.5287 81.5387 93.6034 81.5627 93.6768 81.6107C93.7528 81.6614 93.8114 81.736 93.8554 81.8414L98.4608 92.8134C98.4874 92.8734 98.5021 92.9387 98.5021 93.0027C98.5021 93.124 98.4514 93.2334 98.3554 93.3187C98.2701 93.396 98.1674 93.4373 98.0594 93.4373Z" fill="#231F20"/>
<path d="M119.115 92.748H119.446V81.3946L114.233 85.176H114.078C113.873 85.176 113.849 85.1759 108.81 81.4879C108.745 81.5733 108.689 81.648 108.643 81.712C109.169 82.1146 110.555 83.136 114.075 85.6586L119.138 81.98L119.115 82.6493V92.748ZM119.779 93.0813H118.782V82.652L114.078 86.0693L113.979 86C110.053 83.1867 108.731 82.2053 108.313 81.8773L108.19 81.7813L108.278 81.652C108.354 81.5387 108.471 81.3786 108.649 81.156L108.747 81.0293L108.878 81.1239C112.969 84.1186 113.941 84.8133 114.069 84.8426H114.123L119.779 80.74V93.0813Z" fill="#231F20"/>
<path d="M126.235 81.9653C126.217 81.9653 126.209 81.968 126.209 81.968L126.235 92.4573V87.2787H132.385C132.406 87.2787 132.422 87.276 132.434 87.2733C132.438 87.2733 132.406 87.272 132.385 87.272H126.235V81.9813H133.694C133.729 81.9813 133.745 81.9747 133.749 81.972C133.753 81.972 133.737 81.9653 133.694 81.9653H126.235ZM126.235 92.9867V92.9947L133.855 93.0027C133.894 93.0027 133.906 92.9947 133.906 92.9947C133.911 92.9933 133.898 92.9867 133.855 92.9867H126.235ZM133.855 93.4373H126.235C125.971 93.4373 125.801 93.264 125.801 92.9947V81.9653C125.801 81.7013 125.971 81.5307 126.235 81.5307H133.694C134.045 81.5307 134.17 81.7653 134.17 81.9653C134.17 82.148 134.09 82.2533 134.022 82.3093C133.935 82.3813 133.825 82.416 133.694 82.416H126.67V86.8373H132.385C132.509 86.8373 132.617 86.8667 132.703 86.9253C132.783 86.9813 132.875 87.084 132.875 87.2707C132.875 87.4653 132.782 87.5693 132.703 87.6227C132.618 87.6827 132.51 87.7134 132.385 87.7134H126.67V92.552H133.855C134.206 92.552 134.33 92.7867 134.33 92.9867C134.33 93.136 134.279 93.252 134.179 93.332C134.101 93.4 133.987 93.4373 133.855 93.4373Z" fill="#231F20"/>
<path d="M137.662 92.552H140.661C141.646 92.552 142.558 92.324 143.369 91.876C144.178 91.428 144.823 90.8107 145.289 90.04L145.334 89.964C145.77 89.216 145.99 88.3866 145.99 87.496C145.99 86.5746 145.754 85.716 145.289 84.944C144.823 84.168 144.178 83.5466 143.369 83.096C142.558 82.6453 141.646 82.416 140.661 82.416H137.662V92.552ZM137.229 92.9867V92.9947L140.693 93.0027C141.753 93.0027 142.734 92.752 143.609 92.2587C144.482 91.764 145.179 91.088 145.682 90.2494C146.185 89.412 146.439 88.4866 146.439 87.496C146.439 86.5 146.185 85.5693 145.682 84.7307C145.178 83.8853 144.479 83.2067 143.609 82.7134C142.734 82.2174 141.753 81.9653 140.693 81.9653H137.229C137.209 81.9653 137.202 81.968 137.202 81.968L137.227 92.4546V81.9813H140.661C141.725 81.9813 142.706 82.2294 143.578 82.716C144.457 83.204 145.157 83.8787 145.662 84.72C146.169 85.5627 146.425 86.496 146.425 87.496C146.425 88.496 146.169 89.428 145.662 90.2653C145.157 91.1 144.457 91.7693 143.578 92.256C142.702 92.74 141.721 92.9867 140.661 92.9867H137.229ZM140.693 93.4373H137.203C136.946 93.416 136.793 93.2467 136.793 92.9947V81.9653C136.793 81.7013 136.963 81.5307 137.229 81.5307H140.693C141.829 81.5307 142.882 81.8013 143.822 82.336C144.761 82.8667 145.513 83.5973 146.057 84.5067C146.599 85.4147 146.874 86.42 146.874 87.496C146.874 88.5666 146.599 89.5667 146.057 90.4733C145.513 91.38 144.759 92.108 143.822 92.636C142.883 93.168 141.83 93.4373 140.693 93.4373Z" fill="#231F20"/>
<path d="M150.367 81.9653C150.347 81.9653 150.342 81.968 150.342 81.968L150.367 92.9947L157.987 93.0027C158.018 93.0027 158.034 92.9973 158.038 92.9947C158.045 92.9933 158.03 92.9867 157.987 92.9867H150.367V87.2787H156.517C156.537 87.2787 156.553 87.2774 156.563 87.2747C156.553 87.2734 156.537 87.272 156.517 87.272H150.367V81.9813H157.827C157.867 81.9813 157.881 81.972 157.881 81.972C157.885 81.972 157.87 81.9653 157.827 81.9653H150.367ZM157.987 93.4373H150.367C150.103 93.4373 149.933 93.264 149.933 92.9947V81.9653C149.933 81.7013 150.103 81.5307 150.367 81.5307H157.827C158.177 81.5307 158.301 81.756 158.301 81.9653C158.301 82.1133 158.251 82.2293 158.155 82.3093C158.066 82.3813 157.957 82.416 157.827 82.416H150.802V86.8373H156.517C156.641 86.8373 156.749 86.8667 156.837 86.9253C156.915 86.9813 157.007 87.084 157.007 87.2707C157.007 87.4653 156.914 87.5693 156.837 87.6227C156.751 87.6813 156.641 87.7134 156.517 87.7134H150.802V92.552H157.987C158.338 92.552 158.462 92.7867 158.462 92.9867C158.462 93.1707 158.382 93.276 158.314 93.3307C158.23 93.4 158.119 93.4373 157.987 93.4373Z" fill="#231F20"/>
<path d="M161.329 81.9453L161.33 81.9494C161.33 81.9467 161.329 81.9453 161.329 81.9453ZM161.331 81.9507L161.337 81.9653V81.864C161.335 81.864 161.335 81.864 161.334 81.864L161.331 81.9507ZM161.333 81.9653H161.334C161.333 81.9586 161.331 81.9547 161.331 81.9507L161.33 81.9653C161.331 81.9653 161.331 81.9653 161.333 81.9653ZM161.337 82.0067V92.9546V82.0067ZM161.345 93.4373C161.154 93.4373 161.05 93.348 160.997 93.2747C160.933 93.188 160.902 93.08 160.902 92.9546V82.0067C160.902 81.884 160.935 81.776 161.005 81.688C161.083 81.5866 161.201 81.5307 161.337 81.5307C161.541 81.5307 161.771 81.656 161.771 82.0067V92.9546C161.771 93.3106 161.551 93.4373 161.345 93.4373Z" fill="#231F20"/>
<path d="M166.011 81.9733H170.377C170.837 81.9733 171.271 82.06 171.675 82.2293C171.269 82.0546 170.834 81.9653 170.377 81.9653L166.011 81.9733ZM173.217 83.556C173.234 83.5827 173.249 83.6107 173.265 83.6387C173.557 84.1494 173.705 84.7173 173.705 85.3253C173.705 85.9293 173.557 86.492 173.265 86.9986C173.15 87.196 173.018 87.38 172.87 87.5467C172.982 87.4214 173.085 87.288 173.179 87.1427C173.538 86.6027 173.719 85.9907 173.719 85.3253C173.719 84.724 173.569 84.1587 173.27 83.6453C173.253 83.616 173.235 83.5853 173.217 83.556ZM166.446 88.2107H170.377C170.907 88.2107 171.402 88.0813 171.843 87.8266C172.285 87.5706 172.635 87.2187 172.889 86.7813C173.141 86.3413 173.27 85.8493 173.27 85.3253C173.27 84.7933 173.141 84.2987 172.889 83.8533C172.634 83.4093 172.283 83.0533 171.842 82.7947C171.401 82.5387 170.907 82.408 170.377 82.408H166.446V88.2107ZM171.525 88.468L171.598 88.6533L173.398 92.9747L173.447 93.0027L173.437 92.9653L171.567 88.456L171.754 88.368C172.141 88.1893 172.481 87.9507 172.771 87.652C172.563 87.8654 172.326 88.0493 172.061 88.2027C171.555 88.496 170.989 88.6453 170.377 88.6453L166.013 88.6613H170.377C170.714 88.6613 171.035 88.616 171.334 88.524L171.525 88.468ZM173.447 93.4373H173.422C173.346 93.4373 173.269 93.4147 173.194 93.372C173.111 93.3254 173.045 93.248 172.999 93.1467L171.27 88.9933C170.985 89.0613 170.685 89.096 170.377 89.096H166.446V92.9947C166.446 93.264 166.278 93.4373 166.018 93.4373C165.75 93.4373 165.577 93.264 165.577 92.9947V81.9653C165.577 81.7013 165.747 81.5307 166.011 81.5307H170.377C171.055 81.5307 171.691 81.7027 172.271 82.044C172.846 82.3827 173.31 82.848 173.647 83.428C173.983 84.0093 174.154 84.648 174.154 85.3253C174.154 86.0773 173.949 86.7707 173.545 87.384C173.179 87.9347 172.701 88.3667 172.125 88.6707L173.847 92.8307C173.874 92.9253 173.881 92.96 173.881 92.9947C173.881 93.1107 173.837 93.2173 173.751 93.3027C173.661 93.392 173.557 93.4373 173.447 93.4373Z" fill="#231F20"/>
<path d="M182.663 82.312C181.715 82.312 180.833 82.544 180.039 83.0027C179.245 83.46 178.609 84.0933 178.149 84.8813C177.687 85.6693 177.455 86.548 177.455 87.496C177.455 88.4387 177.687 89.3133 178.147 90.0987C178.609 90.884 179.243 91.5134 180.039 91.9694C180.833 92.4254 181.715 92.656 182.663 92.656C183.613 92.656 184.489 92.4254 185.271 91.9694C186.053 91.516 186.678 90.888 187.129 90.104C187.579 89.3213 187.807 88.444 187.807 87.496C187.807 86.5427 187.579 85.66 187.129 84.8707C186.679 84.0827 186.054 83.4533 185.271 82.9987C184.489 82.5427 183.611 82.312 182.663 82.312ZM182.663 93.0906C181.637 93.0906 180.681 92.8414 179.822 92.3467C178.962 91.8534 178.273 91.1707 177.774 90.3187C177.274 89.4654 177.019 88.516 177.019 87.496C177.019 86.4707 177.274 85.5173 177.773 84.6613C178.273 83.8067 178.961 83.1213 179.822 82.624C180.681 82.128 181.637 81.8774 182.663 81.8774C183.689 81.8774 184.639 82.1266 185.489 82.6213C186.341 83.1186 187.019 83.8013 187.507 84.6546C187.995 85.5106 188.242 86.4667 188.242 87.496C188.242 88.5187 187.995 89.4693 187.507 90.3213C187.015 91.1733 186.337 91.8533 185.489 92.3453C184.642 92.84 183.691 93.0906 182.663 93.0906ZM182.663 81.8373C181.642 81.8373 180.685 82.092 179.818 82.596C178.951 83.1 178.254 83.7907 177.746 84.652C177.238 85.5107 176.981 86.468 176.981 87.496C176.981 88.5173 177.237 89.4707 177.742 90.328C178.247 91.1853 178.943 91.8734 179.81 92.372C180.674 92.8694 181.634 93.1227 182.663 93.1227C183.691 93.1227 184.645 92.8694 185.495 92.372C186.349 91.8734 187.031 91.1853 187.526 90.3293C188.022 89.4707 188.274 88.5173 188.274 87.496C188.274 86.468 188.022 85.5107 187.526 84.6507C187.031 83.7893 186.347 83.0987 185.495 82.5947C184.642 82.092 183.689 81.8373 182.663 81.8373ZM182.663 93.5573C181.558 93.5573 180.523 93.2853 179.593 92.748C178.661 92.212 177.911 91.4707 177.369 90.548C176.823 89.624 176.546 88.5973 176.546 87.496C176.546 86.3893 176.825 85.3573 177.373 84.432C177.917 83.508 178.667 82.7627 179.601 82.22C180.534 81.6773 181.566 81.4013 182.663 81.4013C183.767 81.4013 184.794 81.6773 185.717 82.2213C186.634 82.7626 187.37 83.508 187.903 84.4334C188.438 85.3627 188.709 86.3947 188.709 87.496C188.709 88.5947 188.438 89.6214 187.903 90.5467C187.37 91.4694 186.634 92.2107 185.717 92.7467C184.797 93.2854 183.77 93.5573 182.663 93.5573Z" fill="#231F20"/>
<path d="M197.891 82.2827C197.917 82.2947 197.942 82.3093 197.967 82.324C198.243 82.4813 198.55 82.7027 198.878 82.9827C198.931 83.0307 198.971 83.064 199.005 83.084C198.642 82.7427 198.271 82.4734 197.891 82.2827ZM195.689 81.8373C194.891 81.8373 194.19 81.9507 193.61 82.1733C193.042 82.3907 192.602 82.7094 192.299 83.1227C192.001 83.532 191.847 84.0347 191.847 84.6187C191.847 85.1014 191.977 85.5147 192.23 85.8494C192.49 86.1894 192.89 86.48 193.417 86.7107C193.762 86.86 194.173 86.996 194.643 87.1134C193.962 86.9294 193.386 86.6987 192.922 86.4254C192.214 86.0067 191.854 85.3987 191.854 84.6187C191.854 83.9547 192.05 83.4053 192.435 82.988C192.806 82.584 193.29 82.2893 193.869 82.112C194.433 81.94 195.045 81.8521 195.689 81.8521C196.109 81.8521 196.478 81.8773 196.791 81.9267C196.454 81.8667 196.085 81.8373 195.689 81.8373ZM197.875 87.92C198.233 88.076 198.561 88.284 198.858 88.5414C199.299 88.9227 199.523 89.44 199.523 90.076C199.523 90.7893 199.337 91.3854 198.966 91.8467C198.905 91.9227 198.842 91.996 198.774 92.0667C198.862 91.9747 198.945 91.88 199.021 91.7787C199.359 91.3253 199.531 90.7533 199.531 90.076C199.531 89.4707 199.346 88.9867 198.983 88.6373C198.659 88.3267 198.289 88.0854 197.875 87.92ZM192.777 92.484C192.953 92.5934 193.131 92.6867 193.317 92.7653C193.934 93.0227 194.665 93.1547 195.489 93.1547C196.093 93.1547 196.653 93.0853 197.159 92.948C196.651 93.08 196.091 93.148 195.489 93.148C194.614 93.148 193.857 93.008 193.239 92.7307C193.079 92.6574 192.925 92.5747 192.777 92.484ZM195.489 93.5894C194.606 93.5894 193.819 93.448 193.15 93.1667C192.475 92.884 191.858 92.4094 191.318 91.7587C191.217 91.6414 191.165 91.52 191.165 91.4013C191.165 91.2853 191.209 91.1787 191.291 91.0947L191.325 91.0667C191.455 90.9894 191.715 90.8907 191.99 91.2134C192.386 91.708 192.866 92.0827 193.421 92.3334C193.977 92.5854 194.674 92.7134 195.489 92.7134C196.182 92.7134 196.811 92.62 197.361 92.4347C197.889 92.2547 198.314 91.9667 198.626 91.576C198.934 91.192 199.089 90.688 199.089 90.076C199.089 89.5707 198.915 89.1653 198.573 88.8707C198.205 88.552 197.785 88.3187 197.323 88.1774C196.841 88.032 196.214 87.8827 195.462 87.7334C194.57 87.5707 193.823 87.3614 193.243 87.108C192.647 86.848 192.19 86.5134 191.883 86.1134C191.57 85.7014 191.413 85.1987 191.413 84.6187C191.413 83.9414 191.594 83.352 191.95 82.8653C192.302 82.3827 192.809 82.012 193.454 81.7667C194.085 81.524 194.838 81.4013 195.689 81.4013C196.443 81.4013 197.111 81.5067 197.674 81.7134C198.237 81.92 198.785 82.2774 199.297 82.7747C199.39 82.8654 199.437 82.9814 199.437 83.108C199.437 83.2067 199.405 83.3014 199.345 83.3827L199.307 83.4227C199.117 83.552 198.937 83.5547 198.774 83.4521C198.725 83.4214 198.662 83.3733 198.59 83.3067C198.286 83.0507 198.003 82.844 197.751 82.7C197.509 82.5627 197.225 82.4574 196.91 82.392C196.585 82.3227 196.174 82.288 195.689 82.288C195.087 82.288 194.518 82.368 193.997 82.5267C193.493 82.6813 193.074 82.936 192.754 83.284C192.446 83.6187 192.29 84.0667 192.29 84.6187C192.29 85.2334 192.577 85.7161 193.143 86.0521C193.761 86.4147 194.605 86.6987 195.65 86.8974C196.517 87.0694 197.231 87.2453 197.774 87.4213C198.345 87.6053 198.853 87.908 199.286 88.324C199.737 88.7587 199.966 89.348 199.966 90.076C199.966 90.8493 199.765 91.5107 199.367 92.04C198.974 92.5653 198.431 92.9587 197.751 93.2147C197.087 93.4627 196.326 93.5894 195.489 93.5894Z" fill="#231F20"/>
<path d="M18.4188 106.448L17.1663 109.241H19.6631L18.4188 106.448ZM21.2131 111.245H20.548L19.9057 109.797H16.924L16.2745 111.245H15.6401L18.1371 105.728H18.7163L21.2131 111.245Z" fill="#231F20"/>
<path d="M26.7922 106.339H25.101V108.561H26.7838C27.6057 108.561 28.1933 108.139 28.1933 107.425C28.1933 106.744 27.6766 106.339 26.7922 106.339ZM28.2553 111.245L26.6666 109.117H25.101V111.245H24.4829V105.767H26.8386C28.0444 105.767 28.8193 106.416 28.8193 107.403C28.8193 108.319 28.1933 108.851 27.3324 109.008L29.0152 111.245H28.2553Z" fill="#231F20"/>
<path d="M35.1344 109.485L35.5491 109.023L36.5589 109.939C36.8563 109.556 37.036 109.055 37.036 108.513C37.036 107.261 36.1287 106.244 34.8761 106.244C33.6235 106.244 32.7313 107.245 32.7313 108.499C32.7313 109.751 33.6391 110.768 34.8917 110.768C35.3767 110.768 35.8157 110.612 36.1521 110.353L35.1344 109.485ZM37.7485 110.949L37.3261 111.409L36.6057 110.752C36.1444 111.113 35.5568 111.34 34.8761 111.34C33.2089 111.34 32.0896 110.032 32.0896 108.513C32.0896 106.996 33.224 105.673 34.8917 105.673C36.5589 105.673 37.6781 106.98 37.6781 108.499C37.6781 109.187 37.4433 109.844 37.0204 110.345L37.7485 110.949Z" fill="#231F20"/>
<path d="M45.6527 108.905C45.6527 110.503 44.7354 111.332 43.3674 111.332C42.0127 111.332 41.0887 110.503 41.0887 108.953V105.767H41.7074V108.913C41.7074 110.095 42.3341 110.76 43.3821 110.76C44.3914 110.76 45.0341 110.149 45.0341 108.953V105.767H45.6527V108.905Z" fill="#231F20"/>
<path d="M49.978 105.767V111.245H49.3607V105.767H49.978Z" fill="#231F20"/>
<path d="M55.8474 111.245H55.2221V106.339H53.3821V105.767H57.6874V106.339H55.8474V111.245Z" fill="#231F20"/>
<path d="M64.9967 106.331H61.6541V108.201H64.6447V108.764H61.6541V110.681H65.0354V111.245H61.0367V105.767H64.9967V106.331Z" fill="#231F20"/>
<path d="M70.5434 111.245H69.918V106.339H68.078V105.767H72.3833V106.339H70.5434V111.245Z" fill="#231F20"/>
<path d="M80.2087 108.905C80.2087 110.503 79.2927 111.332 77.9233 111.332C76.5687 111.332 75.646 110.503 75.646 108.953V105.767H76.2647V108.913C76.2647 110.095 76.89 110.76 77.9393 110.76C78.95 110.76 79.5913 110.149 79.5913 108.953V105.767H80.2087V108.905Z" fill="#231F20"/>
<path d="M86.1714 106.339H84.4807V108.561H86.1634C86.9861 108.561 87.5727 108.139 87.5727 107.425C87.5727 106.744 87.0554 106.339 86.1714 106.339ZM87.6354 111.245L86.0461 109.117H84.4807V111.245H83.8634V105.767H86.2181C87.4247 105.767 88.1994 106.416 88.1994 107.403C88.1994 108.319 87.5727 108.851 86.7114 109.008L88.3941 111.245H87.6354Z" fill="#231F20"/>
<path d="M94.0207 106.448L92.7687 109.241H95.2647L94.0207 106.448ZM96.8154 111.245H96.1501L95.5087 109.797H92.5261L91.8754 111.245H91.2421L93.7394 105.728H94.3181L96.8154 111.245Z" fill="#231F20"/>
<path d="M108.583 106.331H105.242V108.201H108.233V108.764H105.242V110.681H108.623V111.245H104.625V105.767H108.583V106.331Z" fill="#231F20"/>
<path d="M117.27 105.767V111.245H116.651V105.767H117.27Z" fill="#231F20"/>
<path d="M125.097 105.767H125.698V111.245H125.206L121.667 106.753V111.245H121.066V105.767H121.645L125.097 110.157V105.767Z" fill="#231F20"/>
<path d="M131.513 111.245H130.887V106.339H129.047V105.767H133.351V106.339H131.513V111.245Z" fill="#231F20"/>
<path d="M140.661 106.331H137.319V108.201H140.309V108.764H137.319V110.681H140.699V111.245H136.701V105.767H140.661V106.331Z" fill="#231F20"/>
<path d="M146.443 106.339H144.753V108.561H146.435C147.258 108.561 147.845 108.139 147.845 107.425C147.845 106.744 147.329 106.339 146.443 106.339ZM147.907 111.245L146.318 109.117H144.753V111.245H144.134V105.767H146.49C147.695 105.767 148.47 106.416 148.47 107.403C148.47 108.319 147.845 108.851 146.983 109.008L148.667 111.245H147.907Z" fill="#231F20"/>
<path d="M152.657 105.767V111.245H152.038V105.767H152.657Z" fill="#231F20"/>
<path d="M158.995 106.244C157.743 106.244 156.85 107.245 156.85 108.499C156.85 109.751 157.758 110.768 159.011 110.768C160.263 110.768 161.155 109.767 161.155 108.513C161.155 107.261 160.247 106.244 158.995 106.244ZM158.995 111.34C157.329 111.34 156.209 110.032 156.209 108.513C156.209 106.996 157.345 105.673 159.011 105.673C160.679 105.673 161.797 106.98 161.797 108.499C161.797 110.016 160.663 111.34 158.995 111.34Z" fill="#231F20"/>
<path d="M167.603 106.339H165.913V108.561H167.595C168.418 108.561 169.005 108.139 169.005 107.425C169.005 106.744 168.487 106.339 167.603 106.339ZM169.069 111.245L167.478 109.117H165.913V111.245H165.294V105.767H167.65C168.855 105.767 169.63 106.416 169.63 107.403C169.63 108.319 169.005 108.851 168.143 109.008L169.827 111.245H169.069Z" fill="#231F20"/>
<path d="M177.105 106.331H173.762V108.201H176.751V108.764H173.762V110.681H177.143V111.245H173.143V105.767H177.105V106.331Z" fill="#231F20"/>
<path d="M182.542 108.209C183.763 108.475 184.327 108.921 184.327 109.767C184.327 110.713 183.545 111.324 182.457 111.324C181.587 111.324 180.875 111.035 180.218 110.448L180.602 109.993C181.174 110.511 181.721 110.768 182.479 110.768C183.215 110.768 183.701 110.385 183.701 109.829C183.701 109.312 183.427 109.023 182.277 108.78C181.015 108.507 180.437 108.1 180.437 107.191C180.437 106.315 181.195 105.688 182.237 105.688C183.035 105.688 183.607 105.915 184.163 106.361L183.802 106.84C183.294 106.424 182.786 106.244 182.222 106.244C181.51 106.244 181.055 106.635 181.055 107.136C181.055 107.661 181.338 107.951 182.542 108.209Z" fill="#231F20"/>
</svg>
